HIERARCHY
ROOT Hips
{
	OFFSET 0.000000 0.000000 0.000000 
	CHANNELS 6 Xposition Yposition Zposition Zrotation Yrotation Xrotation
	JOINT LeftUpLeg
	{
		OFFSET 1.363060 -1.794630 0.839290 
		CHANNELS 3 Zrotation Yrotation Xrotation
		JOINT LeftLeg
		{
			OFFSET 2.448110 -6.726130 0.000000 
			CHANNELS 3 Zrotation Yrotation Xrotation
			JOINT LeftFoot
			{
				OFFSET 2.562200 -7.039590 0.000000 
				CHANNELS 3 Zrotation Yrotation Xrotation
				JOINT LeftToeBase
				{
					OFFSET 0.157640 -0.433110 2.322550 
					CHANNELS 3 Zrotation Yrotation Xrotation
					End Site
					{
						OFFSET 0.000000 0.000000 0.000000 
					}
				}
			}
		}
	}
	JOINT RightUpLeg
	{
		OFFSET -1.305520 -1.794630 0.839290 
		CHANNELS 3 Zrotation Yrotation Xrotation
		JOINT RightLeg
		{
			OFFSET -2.542530 -6.985550 0.000000 
			CHANNELS 3 Zrotation Yrotation Xrotation
			JOINT RightFoot
			{
				OFFSET -2.568260 -7.056230 0.000000 
				CHANNELS 3 Zrotation Yrotation Xrotation
				JOINT RightToeBase
				{
					OFFSET -0.164730 -0.452590 2.363150 
					CHANNELS 3 Zrotation Yrotation Xrotation
					End Site
					{
						OFFSET 0.000000 0.000000 0.000000 
					}
				}
			}
		}
	}
	JOINT Spine
	{
		OFFSET 0.028270 2.035590 -0.193380 
		CHANNELS 3 Zrotation Yrotation Xrotation
		JOINT Spine1
		{
			OFFSET 0.056720 2.048850 -0.042750 
			CHANNELS 3 Zrotation Yrotation Xrotation
			JOINT Neck1
			{
				OFFSET -0.054170 1.746240 0.172020 
				CHANNELS 3 Zrotation Yrotation Xrotation
				JOINT Head
				{
					OFFSET 0.104070 1.761360 -0.123970 
					CHANNELS 3 Zrotation Yrotation Xrotation
					End Site
					{
						OFFSET 0.000000 0.000000 0.000000 
					}
				}
			}
			JOINT LeftArm
			{
				OFFSET 3.362410 1.200890 -0.311210 
				CHANNELS 3 Zrotation Yrotation Xrotation
				JOINT LeftForeArm
				{
					OFFSET 4.983000 -0.000000 -0.000000 
					CHANNELS 3 Zrotation Yrotation Xrotation
					JOINT LeftHand
					{
						OFFSET 3.483560 -0.000000 -0.000000 
						CHANNELS 3 Zrotation Yrotation Xrotation
						JOINT LeftHandIndex1
						{
							OFFSET 0.715260 -0.000000 -0.000000 
							CHANNELS 3 Zrotation Yrotation Xrotation
							End Site
							{
								OFFSET 0.000000 0.000000 0.000000 
							}
						}
					}
				}
			}
			JOINT RightArm
			{
				OFFSET -3.136600 1.374050 -0.404650 
				CHANNELS 3 Zrotation Yrotation Xrotation
				JOINT RightForeArm
				{
					OFFSET -5.241900 -0.000000 -0.000000 
					CHANNELS 3 Zrotation Yrotation Xrotation
					JOINT RightHand
					{
						OFFSET -3.444170 -0.000000 -0.000000 
						CHANNELS 3 Zrotation Yrotation Xrotation
						JOINT RightHandIndex1
						{
							OFFSET -0.622530 -0.000000 -0.000000 
							CHANNELS 3 Zrotation Yrotation Xrotation
							End Site
							{
								OFFSET 0.000000 0.000000 0.000000 
							}
						}
					}
				}
			}
		}
	}
}
MOTION
Frames: 13
Frame Time: 0.041667
-1.321219 17.636275 5.519138 -8.662880 -1.840479 -7.567399 -2.717887 5.242570 25.401245 0.722721 -12.138432 -30.094859 -4.104336 24.550966 14.625002 1.091400 -6.639200 -18.650700 22.870844 -11.894279 21.382856 0.435476 8.589202 -18.729756 2.605867 -13.180716 3.006082 -0.000300 -0.110200 0.302700 3.376453 0.670248 24.658178 -5.241748 0.796724 -15.329001 21.199898 -22.643036 16.268897 5.580500 -10.434100 8.461900 -91.000431 15.442937 48.669638 116.200436 -53.630729 -81.585239 -0.509680 0.996505 -21.554137 -7.125000 0.000000 0.000000 87.032929 4.718279 5.354519 -146.713771 35.534820 -108.594729 -0.880400 1.617552 -41.553060 7.125000 0.000000 0.000000 
-1.306728 17.657262 5.530631 -8.553312 -2.234461 -7.449525 -2.963142 4.981351 25.298017 0.622192 -11.980891 -29.637478 -4.293710 24.923836 14.033474 1.072100 -6.582100 -18.482900 22.756153 -11.496573 21.047689 0.489640 8.378058 -18.155699 2.549697 -12.854533 2.905097 -0.000700 -0.171500 0.471200 3.193076 0.672675 24.556508 -5.181019 0.795432 -15.381246 21.448830 -22.419377 15.273837 5.638500 -10.371000 8.219100 -90.718227 15.836830 48.870509 115.810932 -53.716547 -81.227312 -0.503370 0.990892 -21.593500 -7.125000 0.000000 0.000000 87.129311 4.695350 5.584032 -146.610180 35.632916 -108.509273 -0.877737 1.636816 -41.718724 7.125000 0.000000 0.000000 
-1.309526 17.682448 5.558614 -8.563994 -2.030188 -7.445876 -3.079385 4.258722 25.222896 0.503566 -11.761126 -29.033113 -4.448678 25.123480 13.435530 1.080100 -6.605900 -18.552900 22.812433 -11.258614 20.834535 0.556145 8.113132 -17.414304 2.518427 -12.565362 2.259017 -0.001800 -0.273800 0.752300 3.408039 0.394012 24.558692 -4.977304 0.714615 -15.315052 21.678571 -22.139290 14.167272 5.699600 -10.287800 7.957900 -90.417895 16.200652 49.091504 115.458138 -53.790478 -80.904886 -0.495959 0.980635 -21.731367 -7.125000 0.000000 0.000000 87.341410 4.625489 5.701460 -146.472522 35.748513 -108.416694 -0.866837 1.627318 -41.829364 7.125000 0.000000 0.000000 
-1.300731 17.710531 5.580301 -8.498165 -2.171708 -7.347536 -3.328951 3.646535 25.106262 0.372144 -11.531367 -28.384125 -4.689489 25.514281 12.555178 1.051000 -6.518900 -18.297600 22.789782 -10.757049 20.443459 0.632606 7.790829 -16.537609 2.466786 -12.211789 1.792611 -0.005700 -0.487700 1.340200 3.514794 0.292859 24.501523 -4.848023 0.704256 -15.296078 21.724268 -21.812844 13.073806 5.692100 -10.181700 7.691500 -90.196025 16.478194 49.304350 115.122821 -53.864277 -80.591306 -0.488027 0.973870 -21.912987 -7.125000 0.000000 0.000000 87.547150 4.521820 5.683947 -146.360169 35.846319 -108.340302 -0.867967 1.589956 -41.917134 7.125000 0.000000 0.000000 
-1.284940 17.735516 5.596392 -8.476582 -2.476155 -7.203543 -3.548160 3.068740 24.984193 0.247350 -11.308276 -27.763441 -4.957165 26.004106 11.624975 1.006500 -6.383700 -17.901900 22.810909 -10.199452 19.915058 0.713135 7.420994 -15.539046 2.386114 -11.742100 1.472589 -0.012000 -0.708100 1.946000 3.480608 0.271058 24.405813 -4.825882 0.698496 -15.329380 21.601156 -21.441493 12.043830 5.618000 -10.046300 7.427500 -89.944420 16.765754 49.484788 114.942437 -53.902756 -80.425107 -0.481133 0.970383 -22.044579 -7.125000 0.000000 0.000000 87.706575 4.527667 5.602268 -146.279734 35.932489 -108.266556 -0.891600 1.595161 -42.155548 7.125000 0.000000 0.000000 
-1.267651 17.759902 5.610783 -8.521426 -2.773492 -7.047761 -3.689948 2.541619 24.868897 0.144533 -11.116313 -27.242717 -5.192713 26.464185 10.839805 0.970500 -6.271800 -17.575200 22.879636 -9.741197 19.344815 0.785682 7.052225 -14.545387 2.293039 -11.233305 1.249941 -0.017500 -0.855300 2.350800 3.430695 0.232802 24.267220 -4.860258 0.665927 -15.374522 21.789259 -20.935175 10.691889 5.663900 -9.866700 7.069500 -89.672456 17.050840 49.624585 114.895856 -53.910215 -80.389136 -0.474697 0.969137 -22.150890 -7.125000 0.000000 0.000000 87.767614 4.671695 5.372534 -146.167123 36.078196 -108.123895 -0.961688 1.718322 -41.869316 7.125000 0.000000 0.000000 
-1.249661 17.781889 5.624475 -8.572184 -3.043415 -6.909840 -3.801519 2.155825 24.777352 0.070802 -10.977177 -26.861163 -5.368492 26.783745 10.208370 0.956300 -6.227200 -17.445100 22.935819 -9.325216 18.796573 0.849829 6.693459 -13.578893 2.199453 -10.730614 1.027964 -0.026000 -1.040600 2.860600 3.408135 0.190019 24.246801 -4.898654 0.634062 -15.317117 22.382310 -20.316325 8.899657 5.861900 -9.665100 6.620200 -89.400861 17.143264 49.807041 114.927126 -53.898239 -80.427288 -0.471173 0.969132 -22.345231 -7.125000 0.000000 0.000000 87.714034 4.955106 5.271332 -146.109668 36.144568 -108.088355 -0.941750 1.725541 -41.673795 7.125000 0.000000 0.000000 
-1.231872 17.795281 5.634170 -8.593841 -3.263840 -6.815668 -3.913881 1.847364 24.778595 0.029656 -10.902756 -26.658742 -5.497818 27.027555 9.725090 0.945900 -6.194100 -17.348700 22.948636 -8.994048 18.271310 0.904871 6.342385 -12.628152 2.091173 -10.165201 0.783185 -0.032100 -1.156900 3.180600 3.349650 0.138960 24.350161 -4.901094 0.600945 -15.257116 22.620409 -19.766403 7.499711 5.935000 -9.469700 6.283200 -89.129919 17.085722 49.998753 115.016890 -53.874799 -80.524302 -0.472491 0.968937 -22.570642 -7.125000 0.000000 0.000000 87.496961 5.367076 5.155568 -146.085805 36.175549 -108.101445 -0.906586 1.634459 -41.461964 7.125000 0.000000 0.000000 
-1.215082 17.800778 5.637767 -8.695535 -3.459257 -6.709874 -3.910978 1.694071 24.817175 0.027431 -10.904535 -26.671430 -5.582556 27.239261 9.460085 0.922100 -6.117800 -17.126500 23.030492 -8.804603 17.707300 0.948732 6.011480 -11.732810 1.968771 -9.550721 0.628040 -0.031000 -1.136800 3.125300 3.411538 0.059336 24.355267 -4.920525 0.553572 -15.352636 22.210298 -19.258418 6.787006 5.789000 -9.244000 6.079400 -88.920788 17.029113 50.106468 115.008635 -53.880630 -80.532103 -0.474316 0.971386 -22.654654 -7.125000 0.000000 0.000000 87.160265 5.754160 5.055389 -146.146895 36.146383 -108.149511 -0.906251 1.574355 -41.431591 7.125000 0.000000 0.000000 
-1.192295 17.799678 5.631671 -9.026784 -3.549353 -6.582591 -3.683850 1.627931 24.825786 0.062155 -10.964671 -26.871106 -5.614792 27.423186 9.490774 0.912000 -6.085100 -17.031600 23.309179 -8.831429 17.118889 0.980670 5.722792 -10.948663 1.847685 -8.958140 0.613592 -0.046200 -1.387000 3.814400 3.648098 -0.081774 24.243596 -5.112629 0.448846 -15.567337 21.711577 -18.660732 6.265371 5.623500 -8.962300 5.888300 -88.693370 16.946346 50.202231 114.980300 -53.894236 -80.518492 -0.474461 0.974001 -22.595559 -7.125000 0.000000 0.000000 86.775744 6.116230 5.095073 -146.311724 36.031076 -108.258844 -0.903635 1.581668 -41.538787 7.125000 0.000000 0.000000 
-1.156416 17.792083 5.611383 -9.427217 -3.387591 -6.517860 -3.444084 1.384307 24.899336 0.124213 -11.062308 -27.220777 -5.604959 27.610460 9.766455 0.903700 -6.058100 -16.953000 23.565485 -9.308243 16.499777 0.997778 5.479173 -10.269203 1.718313 -8.329855 0.809114 -0.054100 -1.500700 4.127700 3.804017 -0.294052 24.109103 -5.436569 0.265101 -15.899552 21.359995 -17.990031 5.762889 5.516000 -8.646500 5.684800 -88.416905 16.775889 50.395422 115.093661 -53.877892 -80.629816 -0.476007 0.969717 -22.545196 -7.125000 0.000000 0.000000 86.293821 6.515778 5.112633 -146.448336 35.950226 -108.342556 -0.893560 1.607276 -41.548471 7.125000 0.000000 0.000000 
-1.145123 17.784987 5.606786 -9.800086 -3.637094 -6.502037 -3.082369 1.742030 25.023975 0.198214 -11.205860 -27.626319 -5.535143 27.636822 10.232123 0.869900 -5.946900 -16.630300 23.942056 -9.075145 16.213836 1.020218 5.263427 -9.692386 1.639640 -7.947557 0.698662 -0.035200 -1.211600 3.331300 4.290522 -0.344980 24.175627 -5.550427 0.244695 -16.030326 21.033898 -17.255562 5.446773 5.426700 -8.282500 5.534200 -88.216889 16.508792 50.588620 115.166197 -53.866827 -80.707642 -0.478336 0.962299 -22.459545 -7.125000 0.000000 0.000000 85.720757 6.974584 5.019997 -146.489900 35.950214 -108.361765 -0.892514 1.609957 -41.635519 7.125000 0.000000 0.000000 
-1.140626 17.777092 5.604487 -10.115367 -3.990919 -6.509259 -2.726598 2.265198 25.170482 0.271926 -11.353617 -28.017446 -5.457435 27.593739 10.642732 0.831100 -5.816000 -16.251400 24.299914 -8.648112 16.083708 1.040709 5.088085 -9.233631 1.591134 -7.714927 0.509027 -0.031800 -1.150600 3.163400 4.756557 -0.352945 24.201379 -5.572510 0.259056 -16.197059 20.656776 -16.536432 5.674030 5.305500 -7.881800 5.514600 -88.054402 16.287749 50.698073 115.162048 -53.873945 -80.719189 -0.480003 0.957892 -22.230516 -7.125000 0.000000 0.000000 85.184373 7.420330 4.972029 -146.504187 35.977644 -108.351349 -0.909872 1.606416 -41.849372 7.125000 0.000000 0.000000 
